<?xml version="1.0" standalone="no"?>
<!DOCTYPE svg PUBLIC "-//W3C//DTD SVG 20010904//EN"
 "http://www.w3.org/TR/2001/REC-SVG-20010904/DTD/svg10.dtd">
<svg version="1.0" xmlns="http://www.w3.org/2000/svg"
 width="720.000000pt" height="720.000000pt" viewBox="0 0 720.000000 720.000000"
 preserveAspectRatio="xMidYMid meet">

<g transform="translate(0.000000,720.000000) scale(0.100000,-0.100000)"
fill="#000000" stroke="none">
<path d="M2950 5669 c-503 -43 -1034 -207 -1385 -428 -251 -157 -385 -249
-469 -321 -108 -92 -190 -167 -246 -226 l-65 -68 60 54 c33 29 94 86 135 125
141 134 365 291 608 427 70 39 138 79 152 88 54 38 342 151 506 199 137 40
310 80 474 108 151 25 186 28 415 28 215 0 267 -3 374 -23 316 -57 714 -240
1046 -480 93 -67 281 -237 328 -296 23 -29 67 -84 98 -122 31 -38 85 -114 119
-169 73 -115 231 -436 283 -575 102 -274 134 -372 166 -510 29 -126 51 -203
58 -197 9 10 -68 304 -129 487 -102 309 -248 631 -371 818 -211 319 -462 553
-812 754 -464 266 -879 367 -1345 327z"/>
<path d="M2497 5126 c-413 -264 -931 -789 -1332 -1351 -31 -44 -62 -80 -68
-80 -7 -1 -11 -6 -9 -13 1 -7 -6 -20 -16 -30 -23 -23 -186 -345 -245 -484 -63
-146 -128 -329 -171 -476 -69 -237 -128 -573 -125 -712 2 -54 3 -47 9 40 32
443 232 1079 461 1465 22 39 57 97 77 130 57 97 132 194 145 189 7 -2 24 14
37 38 61 102 85 111 245 83 203 -36 391 -131 527 -268 74 -74 96 -104 132
-180 46 -95 71 -177 85 -275 l7 -57 14 43 c14 45 25 53 34 25 3 -10 3 0 0 22
-4 37 -3 39 11 21 8 -11 15 -14 15 -8 0 40 -23 217 -36 271 -8 35 -13 66 -10
68 2 2 25 -24 52 -59 60 -80 64 -84 64 -72 0 14 -106 171 -155 231 -90 109
-194 196 -335 281 -123 74 -232 155 -253 189 -9 15 92 78 278 174 l150 78 143
-71 c78 -39 142 -76 142 -82 0 -6 -27 -31 -60 -56 -63 -46 -80 -65 -32 -35
123 80 431 379 559 541 l71 92 -152 -73 c-84 -40 -208 -97 -277 -125 -180 -75
-393 -173 -397 -182 -2 -4 -9 -8 -15 -8 -7 0 -75 -34 -152 -76 -77 -42 -153
-83 -170 -92 -65 -34 -287 -185 -355 -242 -40 -33 -75 -58 -78 -56 -4 4 156
203 239 296 345 389 664 683 942 869 42 29 77 54 77 57 0 6 1 7 -73 -40z m297
-443 c-62 -76 -206 -233 -270 -294 -76 -73 -140 -127 -131 -112 5 8 -5 18 -29
28 -44 18 -47 18 -38 3 4 -7 3 -8 -5 -4 -6 4 -9 11 -7 15 3 4 -36 25 -87 46
-51 21 -96 42 -101 47 -11 9 163 92 353 168 73 30 181 77 240 106 58 28 108
50 110 48 2 -2 -14 -25 -35 -51z m-1160 -558 c16 -24 16 -25 -6 -25 -13 0 -29
4 -37 9 -12 8 -12 11 0 25 19 21 24 20 43 -9z"/>
<path d="M664 4508 c-67 -70 -169 -191 -222 -264 -24 -32 -63 -85 -86 -117
-101 -138 -357 -596 -356 -637 1 -8 30 44 67 115 123 244 235 423 407 655 100
134 122 161 205 252 59 64 48 61 -15 -4z"/>
<path d="M3358 4280 c-180 -122 -350 -192 -673 -276 -94 -24 -115 -32 -75 -28
30 3 98 17 150 31 52 14 131 35 175 47 44 12 91 29 105 38 14 10 44 24 67 32
55 19 183 84 204 102 31 28 30 13 -2 -28 -100 -130 -336 -383 -464 -497 -59
-53 -59 -53 -11 -20 54 38 199 178 320 309 89 96 280 330 268 329 -4 0 -33
-17 -64 -39z"/>
<path d="M736 4033 c-6 -14 -5 -15 5 -6 7 7 10 15 7 18 -3 3 -9 -2 -12 -12z"/>
<path d="M2280 4029 c14 -6 84 -13 155 -14 125 -3 127 -3 35 4 -52 5 -122 11
-155 15 -49 5 -55 4 -35 -5z"/>
<path d="M680 3938 c-70 -124 -253 -498 -247 -505 4 -3 11 6 16 20 15 39 181
372 235 470 26 48 45 87 42 87 -3 0 -24 -33 -46 -72z"/>
<path d="M5195 3951 c-20 -63 -212 -341 -314 -456 -131 -147 -331 -322 -478
-418 -89 -58 -262 -151 -269 -144 -3 2 10 13 28 24 60 35 213 170 289 255 100
110 106 124 29 60 -129 -105 -295 -197 -480 -266 -102 -38 -280 -86 -319 -86
-13 0 -21 -3 -18 -6 9 -9 150 14 226 38 52 16 66 17 72 6 21 -37 172 -234 182
-237 7 -3 6 3 -3 15 -9 12 -4 10 13 -5 28 -25 38 -43 12 -21 -24 20 -17 -5 7
-26 12 -10 18 -13 13 -5 -5 10 -4 12 4 7 6 -4 8 -12 5 -18 -7 -11 150 -168
167 -168 6 0 -20 34 -57 74 -37 41 -71 73 -75 70 -4 -2 -11 1 -15 7 -4 8 -3 9
4 5 21 -13 13 1 -73 115 -47 63 -85 117 -85 121 0 3 30 16 66 28 232 74 563
324 798 600 21 25 36 38 33 30 -2 -9 -15 -58 -27 -110 -12 -52 -37 -144 -55
-205 -19 -60 -43 -146 -55 -190 -14 -53 -64 -163 -146 -324 -68 -135 -121
-241 -117 -237 17 16 148 259 225 416 80 163 179 399 177 423 0 13 -24 -36
-75 -158 -40 -97 -42 -92 -8 22 15 49 44 147 65 218 54 183 72 225 138 323 73
109 133 220 128 235 -2 7 -7 1 -12 -12z m-860 -832 c-28 -28 -77 -72 -110 -98
-59 -47 -173 -117 -179 -110 -4 6 -36 71 -36 75 0 2 24 13 53 26 72 32 280
138 292 149 5 5 14 9 19 9 6 0 -12 -23 -39 -51z m-322 -179 c19 -50 6 -52 -22
-4 -25 41 -25 44 -8 44 8 0 21 -18 30 -40z m65 -102 c47 -65 61 -90 36 -63
-36 38 -90 115 -80 115 3 0 23 -24 44 -52z"/>
<path d="M2291 3795 c70 -73 115 -130 133 -168 34 -68 45 -68 22 0 -13 38 -35
67 -99 128 -140 137 -167 155 -56 40z"/>
<path d="M1539 3636 c-108 -42 -162 -87 -236 -195 -1 -2 -10 2 -20 10 -36 29
31 -57 81 -104 162 -152 359 -317 445 -371 48 -31 95 -51 86 -37 -3 5 19 33
50 62 31 29 67 76 82 108 25 50 28 67 28 156 0 89 -3 106 -27 150 -43 83 -113
152 -192 192 -64 33 -80 36 -166 39 -64 3 -107 -1 -131 -10z m139 -42 c43 -30
18 -72 -56 -94 -70 -19 -129 34 -88 79 29 32 108 40 144 15z m-40 -131 c5 -17
-26 -29 -40 -15 -6 6 -7 15 -3 22 9 14 37 9 43 -7z m-272 -18 c-4 -11 2 -15
28 -15 57 0 96 -11 96 -28 0 -13 3 -12 20 3 12 11 20 13 20 6 0 -7 14 -17 30
-22 17 -6 30 -13 30 -16 0 -2 -13 -16 -30 -30 -58 -49 -26 -119 77 -165 51
-23 87 -11 103 35 l10 31 25 -35 c13 -19 30 -40 36 -48 9 -10 9 -18 1 -32 -10
-16 -9 -19 7 -19 12 0 21 -9 25 -25 3 -13 11 -36 16 -50 10 -25 10 -25 37 -8
l28 17 -25 -28 c-48 -53 -51 -52 -154 21 -51 38 -117 88 -145 113 -28 25 -67
59 -88 75 -20 17 -70 63 -110 102 l-72 73 17 30 c18 32 28 40 18 15z m630 -70
c10 -15 19 -55 22 -93 3 -55 0 -76 -18 -115 -12 -26 -26 -49 -29 -52 -20 -11
-54 12 -78 53 -22 37 -27 59 -27 113 -1 61 2 69 27 93 37 34 81 35 103 1z"/>
<path d="M377 3313 c-144 -345 -259 -744 -317 -1096 -34 -211 -43 -348 -37
-587 8 -323 38 -448 174 -710 58 -113 88 -156 53 -77 -12 26 -20 56 -18 65 2
9 -4 25 -12 34 -24 27 -87 156 -116 239 -14 40 -35 134 -46 209 -17 117 -19
169 -15 390 5 266 17 368 72 645 53 265 136 540 251 829 35 88 62 161 60 163
-2 2 -24 -45 -49 -104z"/>
<path d="M3979 3379 c-161 -97 -509 -135 -779 -83 -45 8 -84 13 -87 10 -5 -5
64 -20 162 -36 89 -15 306 -12 419 5 115 17 126 18 107 6 -12 -8 -12 -16 4
-57 l18 -47 -29 -26 c-16 -14 -52 -46 -79 -70 -46 -40 -47 -41 -8 -14 71 50
202 174 279 266 41 48 71 87 67 87 -5 -1 -38 -19 -74 -41z m-9 -36 c-1 -5 -21
-28 -45 -53 l-44 -44 -7 29 c-4 16 -3 30 2 32 5 2 25 11 44 22 40 21 50 24 50
14z m-111 -75 c9 -26 8 -35 -5 -50 -22 -23 -31 -23 -39 3 -7 21 12 79 25 79 5
0 13 -14 19 -32z"/>
<path d="M5614 3180 c53 -349 77 -626 106 -1220 42 -882 50 -1028 65 -1150 25
-217 45 -507 45 -661 0 -106 3 -149 12 -149 17 0 3 394 -22 625 -32 288 -48
483 -55 660 -19 511 -36 901 -46 1050 -23 379 -74 822 -99 862 -9 15 -10 12
-6 -17z"/>
<path d="M3629 3013 c-13 -17 -13 -17 6 -3 11 8 22 16 24 17 2 2 0 3 -6 3 -6
0 -17 -8 -24 -17z"/>
<path d="M581 2844 c0 -11 3 -14 6 -6 3 7 2 16 -1 19 -3 4 -6 -2 -5 -13z"/>
<path d="M527 2672 c-42 -131 -135 -451 -166 -572 -110 -434 -143 -952 -75
-1187 9 -29 20 -55 25 -58 13 -9 11 7 -6 48 -8 20 -15 39 -15 43 0 6 139 -1
195 -10 23 -3 23 -2 -15 -81 -36 -74 -66 -108 -109 -123 l-33 -12 6 33 c13 60
17 134 7 111 -15 -34 -29 -144 -19 -150 5 -3 24 -3 42 0 33 6 69 38 101 89
l18 28 46 -45 c25 -25 61 -56 79 -68 53 -37 275 -192 285 -199 6 -4 0 -17 -12
-30 -45 -48 -18 -123 51 -138 30 -7 42 -5 67 13 17 11 33 29 37 39 7 23 14 22
86 -18 116 -63 312 -135 370 -135 26 0 28 -2 18 -21 -7 -11 -9 -23 -6 -27 3
-3 6 -2 6 3 0 4 11 -12 24 -36 l24 -44 -66 -62 c-37 -34 -61 -62 -54 -63 14 0
90 67 162 143 61 66 74 93 18 39 -52 -50 -68 -43 -68 26 0 38 7 53 43 98 23
29 45 53 49 54 3 0 25 -21 49 -48 l42 -47 -2 -133 c-1 -78 1 -132 7 -132 12 0
22 247 12 275 -4 11 -24 36 -44 55 -20 19 -36 40 -36 46 0 5 43 -4 98 -22 208
-70 467 -127 627 -140 117 -10 426 47 530 97 44 21 125 38 125 26 0 -17 -18
-221 -26 -284 -3 -33 -2 -53 5 -53 5 0 12 8 15 18 5 17 28 275 28 320 0 12 4
22 8 22 5 0 15 3 23 6 9 3 17 -3 20 -18 4 -13 22 -39 42 -59 31 -33 52 -45
108 -63 14 -4 17 -17 17 -66 0 -59 0 -60 28 -60 36 0 62 28 62 67 0 46 24 60
120 67 231 18 459 78 566 149 53 35 114 98 157 161 22 32 27 36 22 16 -11 -50
-75 -449 -75 -467 0 -10 -9 -35 -20 -56 -16 -29 -17 -37 -6 -37 33 0 166 289
247 534 131 399 205 808 239 1330 6 94 14 175 17 180 3 6 31 49 61 94 61 95
166 262 192 307 10 17 40 70 69 118 28 48 47 86 43 83 -5 -3 -37 -53 -72 -113
-35 -59 -92 -151 -125 -203 -149 -230 -216 -329 -228 -342 -8 -7 -20 -25 -28
-39 -22 -40 -195 -270 -313 -418 -217 -271 -378 -445 -656 -711 -25 -24 -34
-35 -20 -24 137 106 418 398 642 670 72 87 86 94 174 94 24 0 44 -4 44 -9 0
-4 -25 -68 -55 -142 -30 -73 -52 -135 -50 -137 4 -4 12 13 77 168 85 202 129
312 125 316 -5 5 -77 -161 -77 -177 0 -16 -40 22 -62 58 -17 29 -16 29 38 103
30 41 60 82 67 90 7 8 34 47 61 85 66 95 70 97 61 50 -4 -22 -11 -42 -15 -45
-5 -3 -4 -25 0 -50 14 -73 11 -144 -15 -345 -58 -453 -152 -837 -285 -1170
-55 -136 -101 -238 -105 -233 -2 2 3 33 10 70 13 62 46 269 60 383 4 28 13 72
21 99 9 34 12 74 8 130 -5 71 -2 95 26 196 41 145 52 192 47 197 -2 2 -17 -41
-32 -94 -15 -54 -29 -102 -30 -108 -2 -5 -4 10 -5 35 -2 42 -3 43 -10 15 -4
-16 -8 -63 -9 -103 l-1 -73 -32 34 c-18 19 -50 40 -70 48 -25 8 -38 19 -38 31
0 9 -9 22 -20 28 -22 12 -60 5 -60 -11 0 -5 -12 -9 -27 -9 l-28 0 30 18 c17
11 47 38 67 60 21 23 40 42 42 42 3 0 6 -9 8 -19 2 -12 20 25 44 84 22 57 36
101 31 98 -13 -8 -57 -105 -57 -126 0 -10 -5 -17 -12 -15 -6 2 -29 -15 -51
-39 -22 -24 -74 -66 -114 -93 -41 -28 -71 -50 -66 -50 4 0 33 4 64 9 68 11
163 -6 208 -38 31 -23 66 -80 82 -133 14 -52 -32 -184 -88 -253 -79 -95 -120
-130 -208 -170 -49 -23 -110 -47 -135 -53 -125 -30 -256 -50 -422 -65 l-38 -3
0 42 c0 54 -8 74 -29 74 -28 0 -61 -30 -61 -55 0 -59 -18 -67 -79 -36 -49 26
-75 64 -67 102 5 25 2 29 -17 29 -13 0 -80 -20 -150 -45 -70 -25 -182 -59
-250 -77 -114 -30 -133 -32 -297 -32 -158 -1 -186 2 -293 27 -355 85 -552 153
-777 269 -214 111 -333 198 -466 341 -204 221 -365 483 -526 857 -49 115 -49
115 -38 175 31 168 143 578 149 549 2 -11 -2 -103 -9 -206 -15 -211 -9 -415
15 -531 16 -80 41 -154 30 -92 -33 198 -37 257 -32 485 5 244 25 421 68 603
12 49 19 90 17 92 -1 2 -24 -63 -51 -143z m-176 -919 c24 -63 177 -379 206
-428 10 -16 28 -46 40 -65 19 -32 21 -41 11 -80 -11 -50 -26 -87 -66 -172 -24
-50 -30 -57 -52 -53 -14 3 -64 8 -112 11 -76 6 -87 9 -93 28 -13 45 -17 346
-6 476 11 125 40 340 46 340 2 0 13 -26 26 -57z m367 -669 c80 -114 238 -284
339 -366 128 -104 328 -217 503 -286 75 -29 94 -42 62 -42 -13 0 -71 21 -130
46 -59 25 -130 56 -157 68 -51 21 -139 72 -390 224 -135 81 -246 164 -330 244
l-41 38 31 94 c16 52 33 91 36 88 3 -4 37 -52 77 -108z m3397 -94 c8 -13 -5
-13 -25 0 -13 8 -13 10 2 10 9 0 20 -4 23 -10z m-3045 -356 c0 -3 -15 -26 -32
-52 -18 -25 -36 -51 -40 -56 -4 -6 -10 -7 -14 -3 -8 8 64 117 77 117 5 0 9 -3
9 -6z m-72 -140 c47 -32 12 -124 -48 -124 -38 0 -70 26 -70 58 0 35 9 47 45
66 37 20 45 20 73 0z m2366 -246 c-1 -47 -7 -95 -13 -107 -12 -22 -37 -28 -43
-11 -8 24 9 180 22 194 26 32 35 11 34 -76z"/>
<path d="M5035 2699 c-9 -17 -15 -33 -13 -35 3 -2 12 12 21 31 21 43 13 47 -8
4z"/>
<path d="M3575 2674 c28 -8 64 -21 80 -28 27 -12 159 -96 225 -143 13 -10 21
-12 17 -6 -5 7 -54 45 -110 85 -56 40 -104 76 -107 80 -8 10 -89 28 -125 27
-25 -1 -22 -3 20 -15z"/>
<path d="M3558 2525 c52 -26 92 -49 89 -51 -2 -2 -39 1 -83 6 -104 13 -334 2
-327 -16 2 -7 -10 -19 -31 -29 -20 -10 -38 -20 -40 -24 -2 -3 55 -6 128 -7
102 0 148 -5 207 -22 176 -49 363 -197 465 -367 55 -92 112 -216 119 -260 6
-37 1 -47 -62 -142 -87 -131 -216 -309 -288 -398 -31 -38 -70 -88 -88 -110
-54 -67 -217 -236 -300 -310 -95 -85 -215 -167 -325 -220 -44 -21 -79 -41 -77
-43 11 -11 223 106 310 171 159 118 355 323 523 547 40 52 75 100 80 105 4 6
35 48 68 95 105 150 360 549 353 553 -2 2 -17 9 -33 17 -16 8 -75 62 -130 119
-166 173 -203 207 -268 254 -82 58 -157 99 -244 135 -121 50 -147 48 -46 -3z
m692 -553 c0 -4 -4 -13 -9 -21 -7 -11 -11 -10 -20 7 -17 33 -14 44 9 32 11 -6
20 -14 20 -18z"/>
<path d="M4437 2283 c-2 -5 -17 -30 -32 -58 -16 -27 -24 -45 -18 -40 14 14 66
105 60 105 -3 0 -8 -3 -10 -7z"/>
<path d="M3285 2232 c-99 -30 -173 -88 -225 -177 -13 -22 -29 -43 -34 -47 -16
-11 162 -179 319 -303 137 -108 260 -195 273 -195 11 1 90 103 116 151 80 145
47 338 -81 466 -102 102 -244 142 -368 105z m162 -49 c32 -21 29 -56 -8 -87
-62 -52 -162 -20 -162 52 0 39 3 43 50 53 45 8 89 2 120 -18z m-355 -145 c-28
-28 -13 -38 58 -38 l70 0 -10 -26 c-16 -41 -12 -63 6 -29 18 36 44 64 44 48 0
-6 18 -18 41 -27 l40 -16 -30 -26 c-72 -60 -7 -184 97 -184 33 0 72 32 72 60
0 11 3 20 8 20 6 -1 60 -71 70 -91 1 -3 -10 -18 -25 -33 l-27 -27 29 11 c15 6
29 9 32 7 2 -2 9 -27 15 -54 l12 -51 26 16 c25 16 25 16 -2 -12 -35 -36 -56
-31 -135 29 -32 25 -101 77 -153 117 -97 73 -270 234 -270 251 0 16 32 78 38
72 3 -3 0 -11 -6 -17z m258 -2 c0 -19 -14 -28 -34 -20 -25 10 -19 34 9 34 15
0 25 -6 25 -14z m358 -76 c39 -79 24 -225 -26 -245 -18 -7 -56 10 -85 39 -31
31 -41 75 -35 156 6 77 26 102 82 98 37 -3 43 -7 64 -48z"/>
<path d="M4320 2084 c-18 -30 -31 -57 -28 -59 2 -2 18 23 36 56 18 32 31 59
28 59 -2 0 -19 -25 -36 -56z"/>
<path d="M1650 1901 c0 -20 44 -63 89 -85 14 -7 60 -21 101 -30 41 -9 82 -22
90 -29 28 -23 107 -132 117 -162 10 -31 31 -40 128 -51 38 -5 38 -4 -15 15
-30 11 -65 20 -77 21 -17 0 -23 6 -23 23 0 12 -15 39 -33 60 -94 112 -87 107
-190 137 -113 33 -145 51 -160 91 -13 33 -27 38 -27 10z"/>
<path d="M532 1755 c0 -16 2 -22 5 -12 2 9 2 23 0 30 -3 6 -5 -1 -5 -18z"/>
<path d="M4993 1720 c0 -25 2 -35 4 -22 2 12 2 32 0 45 -2 12 -4 2 -4 -23z"/>
<path d="M4977 1335 c-5 -165 -12 -453 -17 -640 -12 -421 -25 -543 -74 -658
-17 -39 -9 -51 11 -18 18 29 51 167 63 262 13 109 32 852 28 1134 l-3 220 -8
-300z"/>
<path d="M5607 1380 c-4 -36 -12 -128 -18 -205 -11 -145 -55 -404 -90 -533
-35 -132 -109 -324 -180 -466 -38 -77 -75 -146 -81 -153 -6 -7 -8 -16 -4 -20
3 -4 13 2 20 13 17 22 128 241 152 299 65 158 149 460 171 615 l7 55 7 -50
c11 -79 10 -516 -2 -623 -10 -94 -41 -259 -54 -294 -4 -10 -3 -18 2 -18 15 0
51 173 68 320 18 160 19 360 4 572 -8 116 -8 196 1 333 12 175 10 286 -3 155z"/>
<path d="M3860 840 c-17 -6 -1 -8 55 -9 44 -1 87 -5 95 -11 12 -7 10 -26 -13
-132 -30 -134 -33 -168 -16 -168 6 0 9 -7 5 -15 -11 -29 13 -14 58 35 51 58
106 161 106 199 -1 52 -49 85 -147 100 -81 12 -107 13 -143 1z m218 -35 c6 -6
-79 -264 -88 -270 -16 -10 -11 35 10 105 11 35 22 91 26 122 6 54 8 58 28 52
11 -4 22 -8 24 -9z m52 -67 c0 -16 -7 -43 -16 -61 -23 -45 -86 -137 -94 -137
-4 0 5 35 20 78 15 42 33 101 40 130 12 51 13 52 31 36 11 -9 19 -30 19 -46z"/>
<path d="M3514 758 l-19 -23 23 19 c21 18 27 26 19 26 -2 0 -12 -10 -23 -22z"/>
<path d="M3344 634 c-18 -14 -18 -15 4 -4 12 6 22 13 22 15 0 8 -5 6 -26 -11z"/>
<path d="M342 528 c40 -158 55 -322 40 -434 -11 -81 -10 -105 3 -92 3 2 9 48
15 100 11 106 1 243 -25 374 -15 70 -47 164 -57 164 -2 0 9 -50 24 -112z"/>
<path d="M3280 600 c-9 -6 -10 -10 -3 -10 6 0 15 5 18 10 8 12 4 12 -15 0z"/>
<path d="M3187 565 c-79 -32 -187 -55 -299 -65 l-93 -7 85 -1 c47 -1 117 5
155 13 63 13 225 72 225 81 0 7 -13 3 -73 -21z"/>
<path d="M3357 505 c-45 -15 -64 -31 -27 -22 14 4 49 10 78 13 l53 7 59 -58
c65 -64 83 -69 173 -44 57 16 34 22 -39 10 l-59 -9 -62 59 c-53 51 -66 59
-100 59 -21 -1 -55 -7 -76 -15z"/>
<path d="M115 393 c-17 -129 -50 -236 -92 -291 -13 -18 -23 -38 -21 -44 7 -19
67 77 89 140 11 31 24 97 29 147 10 94 6 132 -5 48z"/>
<path d="M3812 399 c-17 -6 -22 -15 -20 -31 5 -40 78 -32 78 8 0 20 -32 33
-58 23z m31 -24 c1 -5 -6 -11 -15 -13 -11 -2 -18 3 -18 13 0 17 30 18 33 0z"/>
<path d="M3688 379 c-20 -11 -24 -54 -7 -64 37 -24 89 36 53 62 -21 15 -24 16
-46 2z m40 -31 c-3 -7 -13 -13 -23 -13 -10 0 -20 6 -22 13 -3 7 5 12 22 12 17
0 25 -5 23 -12z"/>
<path d="M3566 357 c-10 -7 -16 -22 -14 -33 2 -14 12 -19 38 -19 29 0 36 4 38
24 6 37 -29 52 -62 28z m44 -22 c0 -8 -9 -15 -20 -15 -11 0 -20 7 -20 15 0 8
9 15 20 15 11 0 20 -7 20 -15z"/>
<path d="M4590 227 c-24 -45 -65 -115 -92 -154 -33 -50 -44 -73 -34 -73 8 0
27 20 42 45 32 56 41 59 14 4 -20 -38 -20 -65 -1 -43 19 21 125 293 118 300
-2 2 -23 -33 -47 -79z"/>
</g>
</svg>
